<svg width="16" height="14" viewBox="0 0 16 14" fill="none" xmlns="http://www.w3.org/2000/svg">
<path opacity="0.6" fill-rule="evenodd" clip-rule="evenodd" d="M12.0089 8.08824L15.4375 4.65966C15.6607 4.43645 15.6607 4.07931 15.4375 3.85609L12.0089 0.427517C11.9018 0.320374 11.7589 0.257874 11.6072 0.257874C11.5357 0.257874 11.4554 0.275731 11.3839 0.302516C11.1786 0.391802 11.0357 0.59716 11.0357 0.829303V2.54359H9.60715C3.78572 2.54359 3.03572 5.29359 3.03572 7.68645C3.03572 9.4564 4.43039 11.4456 4.51589 11.5676L4.51786 11.5704C4.57143 11.6418 4.66072 11.6865 4.75 11.6865C4.78572 11.6865 4.82143 11.6775 4.85714 11.6686L4.85715 11.6686C4.97322 11.615 5.05358 11.49 5.03572 11.365C4.75893 9.31146 4.97322 7.97217 5.69643 7.14181C6.39286 6.34717 7.64287 5.97217 9.60715 5.97217H11.0357V7.68645C11.0357 7.9186 11.1786 8.12395 11.3839 8.21324C11.4554 8.24003 11.5357 8.25787 11.6072 8.25787C11.7589 8.25787 11.9018 8.20431 12.0089 8.08824ZM13.3214 11.4007V9.08824C13.3214 8.97217 13.2411 8.87395 13.1339 8.82931C13.0268 8.78467 12.9018 8.82038 12.8214 8.90073C12.6786 9.03467 12.5179 9.15074 12.3393 9.2311C12.2411 9.28467 12.1786 9.38288 12.1786 9.49003V11.4007C12.1786 12.1865 11.5357 12.8293 10.75 12.8293H3.32143C2.53572 12.8293 1.89286 12.1865 1.89286 11.4007V3.97216C1.89286 3.18645 2.53572 2.54359 3.32143 2.54359H4.32143C4.375 2.54359 4.41965 2.52573 4.46429 2.50788C4.80358 2.30252 5.20536 2.12395 5.65179 1.97216C5.78572 1.94538 5.88393 1.8293 5.88393 1.68645C5.88393 1.52573 5.75 1.40073 5.59822 1.40073H3.32143C1.90179 1.40073 0.75 2.55252 0.75 3.97216V11.4007C0.75 12.8204 1.90179 13.9722 3.32143 13.9722H10.75C12.1697 13.9722 13.3214 12.8204 13.3214 11.4007Z" fill="#9B9EB0"/>
</svg>
