<svg width="23" height="23" viewBox="0 0 23 23" fill="none" xmlns="http://www.w3.org/2000/svg">
<path fill-rule="evenodd" clip-rule="evenodd" d="M22.5322 12.1455C22.5394 11.9593 22.4785 11.7946 22.3496 11.6514L12.0156 0.844727C11.9583 0.773112 11.8867 0.719401 11.8008 0.683594C11.7149 0.647786 11.6218 0.629883 11.5215 0.629883C11.4356 0.629883 11.3496 0.647786 11.2637 0.683594C11.1778 0.719401 11.099 0.773112 11.0274 0.844727L0.650407 11.6514C0.5215 11.7946 0.460628 11.9593 0.46779 12.1455C0.474951 12.3317 0.542984 12.4964 0.671891 12.6396C0.815121 12.7686 0.979833 12.8294 1.16603 12.8223C1.35223 12.8151 1.51694 12.7471 1.66017 12.6182L2.584 11.6514V21.9424C2.584 22.1286 2.64845 22.2897 2.77736 22.4258C2.90627 22.5618 3.07098 22.6299 3.2715 22.6299H8.06252C8.24871 22.6299 8.40985 22.5618 8.54591 22.4258C8.68198 22.2897 8.75002 22.1286 8.75002 21.9424L8.7715 15.0674H14.25V21.9424C14.25 22.1286 14.318 22.2897 14.4541 22.4258C14.5902 22.5618 14.7513 22.6299 14.9375 22.6299H19.75C19.9362 22.6299 20.0973 22.5618 20.2334 22.4258C20.3695 22.2897 20.4375 22.1286 20.4375 21.9424V11.6514L21.3613 12.6182C21.4186 12.6898 21.4902 12.7435 21.5762 12.7793C21.6621 12.8151 21.7552 12.833 21.8555 12.833C21.9414 12.833 22.0238 12.8151 22.1026 12.7793C22.1813 12.7435 22.2565 12.6969 22.3281 12.6396C22.457 12.4964 22.5251 12.3317 22.5322 12.1455ZM19.084 10.2334C19.0697 10.262 19.0625 10.2907 19.0625 10.3193V21.2549H15.625V14.3799C15.625 14.1937 15.557 14.0326 15.4209 13.8965C15.2848 13.7604 15.1237 13.6924 14.9375 13.6924H8.084C7.8978 13.6924 7.73667 13.7604 7.6006 13.8965C7.46453 14.0326 7.3965 14.1937 7.3965 14.3799L7.37502 21.2549H3.959V10.4053C3.959 10.3766 3.95542 10.348 3.94826 10.3193C3.9411 10.2907 3.93752 10.262 3.93752 10.2334L11.5215 2.32715L19.084 10.2334Z" fill="#F47B54"/>
</svg>
