<svg width="21" height="16" viewBox="0 0 21 16" fill="none" xmlns="http://www.w3.org/2000/svg">
<path fill-rule="evenodd" clip-rule="evenodd" d="M1.02734 2.03906C0.949218 1.94792 0.890625 1.85352 0.851562 1.75586C0.8125 1.6582 0.792969 1.54427 0.792969 1.41406C0.792969 1.29687 0.8125 1.1862 0.851562 1.08203C0.890625 0.977864 0.949218 0.886719 1.02734 0.808594C1.10547 0.730468 1.19661 0.671875 1.30078 0.632812C1.40495 0.59375 1.51562 0.574219 1.63281 0.574219H19.4648C19.582 0.574219 19.6927 0.59375 19.7969 0.632812C19.901 0.671875 19.9922 0.730468 20.0703 0.808594C20.1484 0.886719 20.207 0.977864 20.2461 1.08203C20.2852 1.1862 20.3047 1.29687 20.3047 1.41406C20.3047 1.54427 20.2852 1.6582 20.2461 1.75586C20.207 1.85352 20.1484 1.94792 20.0703 2.03906C19.9922 2.11719 19.901 2.17578 19.7969 2.21484C19.6927 2.25391 19.582 2.27344 19.4648 2.27344H1.63281C1.51562 2.27344 1.40495 2.25391 1.30078 2.21484C1.19661 2.17578 1.10547 2.11719 1.02734 2.03906ZM20.0703 7.60547C20.1484 7.68359 20.207 7.77474 20.2461 7.87891C20.2852 7.98307 20.3047 8.09375 20.3047 8.21094C20.3047 8.32813 20.2852 8.4388 20.2461 8.54297C20.207 8.64714 20.1484 8.73828 20.0703 8.81641C19.9922 8.89453 19.901 8.95312 19.7969 8.99219C19.6927 9.03125 19.582 9.05078 19.4648 9.05078H1.63281C1.51562 9.05078 1.40495 9.03125 1.30078 8.99219C1.19661 8.95312 1.10547 8.89453 1.02734 8.81641C0.949218 8.73828 0.890625 8.64714 0.851562 8.54297C0.8125 8.4388 0.792969 8.32813 0.792969 8.21094C0.792969 8.09375 0.8125 7.98307 0.851562 7.87891C0.890625 7.77474 0.949218 7.68359 1.02734 7.60547C1.10547 7.52734 1.19661 7.46875 1.30078 7.42969C1.40495 7.39062 1.51562 7.37109 1.63281 7.37109H19.4648C19.582 7.37109 19.6927 7.39062 19.7969 7.42969C19.901 7.46875 19.9922 7.52734 20.0703 7.60547ZM20.2461 14.6562C20.207 14.5521 20.1484 14.4609 20.0703 14.3828C19.9922 14.3047 19.901 14.2461 19.7969 14.207C19.6927 14.168 19.582 14.1484 19.4648 14.1484H1.63281C1.51562 14.1484 1.40495 14.168 1.30078 14.207C1.19661 14.2461 1.10547 14.3047 1.02734 14.3828C0.949218 14.4609 0.890625 14.5521 0.851562 14.6562C0.8125 14.7604 0.792969 14.8711 0.792969 14.9883C0.792969 15.1185 0.8125 15.2324 0.851562 15.3301C0.890625 15.4277 0.949218 15.5221 1.02734 15.6133C1.10547 15.6914 1.19661 15.75 1.30078 15.7891C1.40495 15.8281 1.51562 15.8477 1.63281 15.8477H19.4648C19.582 15.8477 19.6927 15.8281 19.7969 15.7891C19.901 15.75 19.9922 15.6914 20.0703 15.6133C20.1484 15.5221 20.207 15.4277 20.2461 15.3301C20.2852 15.2324 20.3047 15.1185 20.3047 14.9883C20.3047 14.8711 20.2852 14.7604 20.2461 14.6562Z" fill="#0E0E2D"/>
</svg>
