<svg width="23" height="17" viewBox="0 0 23 17" fill="none" xmlns="http://www.w3.org/2000/svg">
<path fill-rule="evenodd" clip-rule="evenodd" d="M22.1882 11.6377C22.2025 11.6807 22.2061 11.7201 22.1989 11.7559C22.1917 11.7917 22.181 11.8311 22.1667 11.874C22.1667 11.9027 22.1702 11.9349 22.1774 11.9707C22.1846 12.0065 22.1882 12.0459 22.1882 12.0889C22.1882 12.7477 22.0628 13.3672 21.8122 13.9473C21.5615 14.5273 21.2178 15.0358 20.7809 15.4727C20.3441 15.9095 19.8356 16.2533 19.2555 16.5039C18.6755 16.7546 18.0488 16.8799 17.3757 16.8799C16.7168 16.8799 16.0938 16.7546 15.5065 16.5039C14.9193 16.2533 14.4036 15.9095 13.9596 15.4727C13.5156 15.0358 13.1647 14.5273 12.9069 13.9473C12.6491 13.3672 12.5202 12.7477 12.5202 12.0889C12.5202 11.874 12.5309 11.6699 12.5524 11.4766C12.5739 11.2832 12.6133 11.0934 12.6706 10.9072C12.5273 10.8499 12.3268 10.7926 12.069 10.7354C11.8112 10.6781 11.5104 10.6494 11.1667 10.6494C10.8086 10.6494 10.5042 10.6816 10.2536 10.7461C10.0029 10.8105 9.80599 10.8714 9.66276 10.9287C9.70573 11.1149 9.74154 11.3047 9.77018 11.498C9.79883 11.6914 9.81315 11.8883 9.81315 12.0889C9.81315 12.7477 9.68783 13.3672 9.43717 13.9473C9.18652 14.5273 8.84278 15.0358 8.40592 15.4727C7.96907 15.9095 7.46061 16.2533 6.88053 16.5039C6.30045 16.7546 5.67383 16.8799 5.00065 16.8799C4.34179 16.8799 3.71875 16.7546 3.13151 16.5039C2.54427 16.2533 2.02865 15.9095 1.58464 15.4727C1.14062 15.0358 0.789715 14.5273 0.531901 13.9473C0.274087 13.3672 0.145182 12.7477 0.145182 12.0889V11.7881C0.145182 11.7594 0.141602 11.7272 0.13444 11.6914C0.127279 11.6556 0.130859 11.6234 0.145182 11.5947C0.145182 11.5231 0.202473 11.1221 0.317057 10.3916C0.431641 9.66113 0.560546 8.84473 0.703776 7.94238C0.847006 7.04003 0.986653 6.17709 1.12272 5.35352C1.25879 4.52994 1.34831 3.98926 1.39128 3.73145C1.39128 3.67415 1.39486 3.62044 1.40202 3.57031C1.40918 3.52018 1.41992 3.46647 1.43424 3.40918C1.49154 2.87923 1.7028 2.24187 2.06803 1.49707C2.43327 0.752275 3.40364 0.379883 4.97917 0.379883C5.16537 0.379883 5.3265 0.447916 5.46256 0.583984C5.59863 0.720053 5.66667 0.881184 5.66667 1.06738C5.66667 1.25358 5.59863 1.41471 5.46256 1.55078C5.3265 1.68685 5.16537 1.75488 4.97917 1.75488C4.0052 1.75488 3.41439 1.93034 3.20671 2.28125C2.99902 2.63216 2.85938 3.06543 2.78776 3.58105C2.78776 3.63835 2.7806 3.69922 2.76628 3.76367C2.75195 3.82813 2.74479 3.889 2.74479 3.94629C2.70182 4.18978 2.60156 4.74479 2.44401 5.61133C2.28646 6.47787 2.12891 7.39095 1.97135 8.35059C2.38672 8.02116 2.85221 7.75977 3.36784 7.56641C3.88347 7.37305 4.42773 7.27637 5.00065 7.27637C5.88868 7.27637 6.69433 7.49479 7.41764 7.93164C8.14095 8.36849 8.71745 8.93782 9.14714 9.63965C9.34766 9.55371 9.61621 9.47135 9.9528 9.39258C10.2894 9.3138 10.694 9.27441 11.1667 9.27441C11.625 9.27441 12.0296 9.3138 12.3805 9.39258C12.7314 9.47135 13.0072 9.55371 13.2077 9.63965C13.6374 8.93782 14.221 8.36849 14.9587 7.93164C15.6963 7.49479 16.5019 7.27637 17.3757 7.27637C17.9199 7.27637 18.4391 7.36588 18.9333 7.54492C19.4274 7.72396 19.875 7.96387 20.276 8.26465C20.1185 7.30501 19.9645 6.40625 19.8141 5.56836C19.6637 4.73046 19.5671 4.18978 19.5241 3.94629C19.5098 3.889 19.499 3.82813 19.4919 3.76367C19.4847 3.69922 19.4811 3.63835 19.4811 3.58105C19.4095 3.06543 19.2699 2.63216 19.0622 2.28125C18.8545 1.93034 18.2637 1.75488 17.2897 1.75488C17.0892 1.75488 16.9245 1.68685 16.7956 1.55078C16.6667 1.41471 16.6022 1.25358 16.6022 1.06738C16.6022 0.881184 16.6667 0.720053 16.7956 0.583984C16.9245 0.447916 17.0892 0.379883 17.2897 0.379883C18.8652 0.379883 19.832 0.752275 20.1901 1.49707C20.5482 2.24187 20.763 2.87923 20.8346 3.40918C20.849 3.46647 20.8597 3.52018 20.8669 3.57031C20.874 3.62044 20.8776 3.67415 20.8776 3.73145C20.9206 3.98926 21.0137 4.53352 21.1569 5.36426C21.3001 6.19499 21.4469 7.06152 21.5973 7.96387C21.7477 8.86622 21.8838 9.68619 22.0055 10.4238C22.1273 11.1615 22.1882 11.5661 22.1882 11.6377ZM5.00065 15.5049C5.94597 15.5049 6.75521 15.1719 7.42839 14.5059C8.10157 13.8398 8.43815 13.0342 8.43815 12.0889C8.43815 11.1435 8.10157 10.3343 7.42839 9.66113C6.75521 8.98795 5.94597 8.65137 5.00065 8.65137C4.05533 8.65137 3.23894 8.99153 2.55143 9.67188C1.86393 10.3522 1.52018 11.1579 1.52018 12.0889C1.52018 13.0055 1.86393 13.804 2.55143 14.4844C3.23894 15.1647 4.05533 15.5049 5.00065 15.5049ZM19.8034 14.5059C19.1302 15.1719 18.321 15.5049 17.3757 15.5049C16.4303 15.5049 15.6139 15.1647 14.9264 14.4844C14.2389 13.804 13.8952 13.0055 13.8952 12.0889C13.8952 11.1579 14.2389 10.3522 14.9264 9.67188C15.6139 8.99153 16.4303 8.65137 17.3757 8.65137C18.1921 8.65137 18.9118 8.90918 19.5348 9.4248C20.1579 9.94043 20.5553 10.5778 20.7272 11.3369C20.7272 11.4085 20.7308 11.4766 20.738 11.541C20.7451 11.6055 20.7487 11.6663 20.7487 11.7236C20.763 11.7523 20.7738 11.7809 20.7809 11.8096C20.7881 11.8382 20.7917 11.8669 20.7917 11.8955C20.7917 11.9242 20.7952 11.9528 20.8024 11.9814C20.8096 12.0101 20.8132 12.0459 20.8132 12.0889C20.8132 13.0342 20.4766 13.8398 19.8034 14.5059Z" fill="#F47B54"/>
</svg>
