<svg width="12" height="14" viewBox="0 0 12 14" fill="none" xmlns="http://www.w3.org/2000/svg">
<path fill-rule="evenodd" clip-rule="evenodd" d="M11.2857 0.508946C11.1607 0.455375 11.0268 0.428589 10.8929 0.428589H1.53572C1.40179 0.428589 1.26786 0.455375 1.14286 0.508946C0.75 0.660732 0.5 1.0268 0.5 1.42859V12.9375C0.5 13.3393 0.75 13.7054 1.14286 13.8572C1.26786 13.9107 1.40179 13.9375 1.53572 13.9375C1.8125 13.9375 2.07143 13.8304 2.27679 13.6429L6.21429 9.85717L10.1518 13.6429C10.3572 13.8304 10.6161 13.9286 10.8929 13.9286C11.0268 13.9286 11.1607 13.9107 11.2857 13.8572C11.6786 13.7054 11.9286 13.3393 11.9286 12.9375V1.42859C11.9286 1.0268 11.6786 0.660732 11.2857 0.508946ZM1.64286 1.57145H10.7857V12.6607L7.00894 9.03574L6.21429 8.27681L5.41965 9.03574L1.64286 12.6607V1.57145Z" fill="white"/>
</svg>
