<svg width="20" height="23" viewBox="0 0 20 23" fill="none" xmlns="http://www.w3.org/2000/svg">
<path fill-rule="evenodd" clip-rule="evenodd" d="M18.2982 15.9268C18.6706 16.3851 18.9642 16.7933 19.1791 17.1514C19.3939 17.5094 19.4154 17.8675 19.2435 18.2256C19.0716 18.5837 18.7923 18.7913 18.4056 18.8486C18.0189 18.9059 17.7181 18.9346 17.5033 18.9346H13.4857C13.4857 19.9515 13.1276 20.818 12.4115 21.5342C11.6953 22.2503 10.8288 22.6084 9.81186 22.6084C8.79493 22.6084 7.9284 22.2503 7.21225 21.5342C6.4961 20.818 6.13803 19.9515 6.13803 18.9346H2.20639C1.87696 18.9346 1.5368 18.8952 1.18589 18.8164C0.834972 18.7376 0.580743 18.5407 0.42319 18.2256C0.251314 17.8675 0.265637 17.4987 0.466159 17.1191C0.666681 16.7396 0.938814 16.3206 1.28257 15.8623C1.66929 15.361 2.09181 14.7917 2.55014 14.1543C3.00848 13.5169 3.23764 12.8545 3.23764 12.167V7.67676C3.23764 6.70279 3.40594 5.78972 3.74253 4.9375C4.07912 4.08528 4.54103 3.3405 5.12827 2.70312C5.71551 2.06575 6.41017 1.56445 7.21225 1.19922C8.01434 0.833983 8.87371 0.651367 9.79038 0.651367C10.7214 0.651367 11.5879 0.833983 12.39 1.19922C13.1921 1.56445 13.8903 2.06575 14.4847 2.70312C15.0791 3.3405 15.5446 4.08528 15.8812 4.9375C16.2178 5.78972 16.3861 6.70279 16.3861 7.67676V12.167C16.3861 12.8688 16.6045 13.5492 17.0414 14.208C17.4782 14.8669 17.8971 15.4398 18.2982 15.9268ZM9.81186 21.1689C10.4278 21.1689 10.9541 20.9505 11.391 20.5137C11.8278 20.0768 12.0462 19.5505 12.0462 18.9346H7.57749C7.57749 19.5505 7.79591 20.0768 8.23276 20.5137C8.66961 20.9505 9.19597 21.1689 9.81186 21.1689ZM17.4173 17.1621C17.5033 17.2695 17.582 17.3734 17.6537 17.4736H1.94858C2.0202 17.359 2.10255 17.2373 2.19565 17.1084C2.28875 16.9795 2.37827 16.8577 2.46421 16.7432C2.87957 16.1846 3.3558 15.515 3.89292 14.7344C4.43003 13.9538 4.69858 13.098 4.69858 12.167V7.67676C4.69858 6.90332 4.82749 6.18002 5.0853 5.50684C5.34311 4.83366 5.70118 4.24642 6.15952 3.74512C6.61785 3.24381 7.15854 2.84636 7.78159 2.55273C8.40464 2.25911 9.07423 2.1123 9.79038 2.1123C10.5209 2.1123 11.1976 2.25911 11.8207 2.55273C12.4437 2.84636 12.9844 3.24381 13.4427 3.74512C13.9011 4.24642 14.2627 4.83366 14.5277 5.50684C14.7927 6.18002 14.9251 6.90332 14.9251 7.67676V12.167C14.9251 13.1266 15.1794 14.0039 15.6878 14.7988C16.1963 15.5938 16.6869 16.2777 17.1595 16.8506C17.2455 16.9508 17.3314 17.0547 17.4173 17.1621Z" fill="#0E0E2D"/>
</svg>
