<svg width="15" height="15" viewBox="0 0 15 15" fill="none" xmlns="http://www.w3.org/2000/svg">
<path fill-rule="evenodd" clip-rule="evenodd" d="M11.2589 8.61607L14.6875 5.1875C14.9107 4.96428 14.9107 4.60714 14.6875 4.38392L11.2589 0.955349C11.1518 0.848206 11.0089 0.785706 10.8572 0.785706C10.7857 0.785706 10.7054 0.803563 10.6339 0.830348C10.4286 0.919634 10.2857 1.12499 10.2857 1.35713V3.07142H8.85715C3.03572 3.07142 2.28572 5.82143 2.28572 8.21429C2.28572 9.98423 3.68039 11.9735 3.76589 12.0954L3.76786 12.0982C3.82143 12.1696 3.91072 12.2143 4 12.2143C4.03572 12.2143 4.07143 12.2054 4.10714 12.1964L4.10715 12.1964C4.22322 12.1429 4.30358 12.0179 4.28572 11.8929C4.00893 9.83929 4.22322 8.5 4.94643 7.66964C5.64286 6.875 6.89287 6.5 8.85715 6.5H10.2857V8.21429C10.2857 8.44643 10.4286 8.65179 10.6339 8.74107C10.7054 8.76786 10.7857 8.78571 10.8572 8.78571C11.0089 8.78571 11.1518 8.73214 11.2589 8.61607ZM12.5714 11.9286V9.61607C12.5714 9.5 12.4911 9.40179 12.3839 9.35714C12.2768 9.3125 12.1518 9.34822 12.0714 9.42856C11.9286 9.5625 11.7679 9.67857 11.5893 9.75893C11.4911 9.8125 11.4286 9.91072 11.4286 10.0179V11.9286C11.4286 12.7143 10.7857 13.3571 10 13.3571H2.57143C1.78572 13.3571 1.14286 12.7143 1.14286 11.9286V4.5C1.14286 3.71428 1.78572 3.07142 2.57143 3.07142H3.57143C3.625 3.07142 3.66965 3.05357 3.71429 3.03571C4.05358 2.83035 4.45536 2.65178 4.90179 2.49999C5.03572 2.47321 5.13393 2.35714 5.13393 2.21428C5.13393 2.05356 5 1.92856 4.84822 1.92856H2.57143C1.15179 1.92856 0 3.08035 0 4.5V11.9286C0 13.3482 1.15179 14.5 2.57143 14.5H10C11.4197 14.5 12.5714 13.3482 12.5714 11.9286Z" fill="white"/>
</svg>
