<svg width="12" height="15" viewBox="0 0 12 15" fill="none" xmlns="http://www.w3.org/2000/svg">
<path opacity="0.6" fill-rule="evenodd" clip-rule="evenodd" d="M11.0357 0.981053C10.9107 0.927482 10.7768 0.900696 10.6429 0.900696H1.28572C1.15179 0.900696 1.01786 0.927482 0.892858 0.981053C0.5 1.13284 0.25 1.49891 0.25 1.9007V13.4096C0.25 13.8114 0.5 14.1775 0.892858 14.3293C1.01786 14.3829 1.15179 14.4096 1.28572 14.4096C1.5625 14.4096 1.82143 14.3025 2.02679 14.115L5.96429 10.3293L9.9018 14.115C10.1072 14.3025 10.3661 14.4007 10.6429 14.4007C10.7768 14.4007 10.9107 14.3829 11.0357 14.3293C11.4286 14.1775 11.6786 13.8114 11.6786 13.4096V1.9007C11.6786 1.49891 11.4286 1.13284 11.0357 0.981053ZM1.39286 2.04355H10.5357V13.1329L6.75894 9.50785L5.96429 8.74892L5.16965 9.50785L1.39286 13.1329V2.04355Z" fill="#9B9EB0"/>
</svg>
