<svg width="23" height="23" viewBox="0 0 23 23" fill="none" xmlns="http://www.w3.org/2000/svg">
<path fill-rule="evenodd" clip-rule="evenodd" d="M22.0596 10.0293C21.7659 9.76432 21.4544 9.60319 21.125 9.5459L19.3633 9.15918C19.306 8.93001 19.2308 8.71159 19.1377 8.50391C19.0446 8.29622 18.9479 8.09212 18.8477 7.8916L19.793 6.30176C19.9792 6.0153 20.0938 5.68587 20.1367 5.31348C20.1797 4.94108 20.0651 4.61882 19.793 4.34668L18.8262 3.37988C18.554 3.10775 18.2246 2.98242 17.8379 3.00391C17.4512 3.02539 17.1146 3.12923 16.8281 3.31543L15.2812 4.30371C15.0807 4.20345 14.8766 4.11035 14.6689 4.02441C14.4613 3.93848 14.25 3.8597 14.0352 3.78809L13.6484 1.9834C13.5768 1.66829 13.4121 1.36393 13.1543 1.07031C12.8965 0.776691 12.5742 0.629883 12.1875 0.629883H10.8125C10.4258 0.629883 10.1178 0.776691 9.88867 1.07031C9.6595 1.36393 9.50912 1.67545 9.4375 2.00488L8.98633 3.7666C8.75716 3.83822 8.53158 3.92057 8.30957 4.01367C8.08756 4.10677 7.86914 4.21061 7.6543 4.3252L6.06445 3.31543C5.79232 3.12923 5.45931 3.02539 5.06543 3.00391C4.67155 2.98242 4.3457 3.10775 4.08789 3.37988L3.09961 4.34668C2.8418 4.61882 2.73437 4.94108 2.77734 5.31348C2.82031 5.68587 2.92773 6.0153 3.09961 6.30176L4.10938 7.97754C4.02344 8.16374 3.9375 8.3571 3.85156 8.55762C3.76562 8.75814 3.69401 8.95866 3.63672 9.15918L1.875 9.5459C1.54557 9.60319 1.23405 9.76432 0.94043 10.0293C0.646808 10.2943 0.5 10.6201 0.5 11.0068V12.3818C0.5 12.7542 0.646808 13.055 0.94043 13.2842C1.23405 13.5133 1.54557 13.6709 1.875 13.7568L3.6582 14.1865C3.7155 14.387 3.78353 14.5768 3.8623 14.7559C3.94108 14.9349 4.02344 15.1104 4.10938 15.2822L3.09961 16.958C2.92773 17.2445 2.82031 17.5739 2.77734 17.9463C2.73437 18.3187 2.8418 18.6409 3.09961 18.9131L4.08789 19.8799C4.3457 20.152 4.67155 20.2773 5.06543 20.2559C5.45931 20.2344 5.79232 20.1305 6.06445 19.9443L7.6543 18.9346C7.86914 19.0492 8.09114 19.153 8.32031 19.2461C8.54948 19.3392 8.77864 19.4215 9.00781 19.4932L9.4375 21.2549C9.52344 21.5843 9.68099 21.8958 9.91016 22.1895C10.1393 22.4831 10.4401 22.6299 10.8125 22.6299H12.1875C12.5742 22.6299 12.9001 22.4831 13.165 22.1895C13.43 21.8958 13.5911 21.5843 13.6484 21.2549L14.0352 19.4717C14.2643 19.4001 14.4792 19.3213 14.6797 19.2354C14.8802 19.1494 15.0807 19.0563 15.2812 18.9561L16.8281 19.9443C17.1146 20.1305 17.4512 20.2344 17.8379 20.2559C18.2246 20.2773 18.554 20.152 18.8262 19.8799L19.793 18.9131C20.0651 18.6409 20.1797 18.3187 20.1367 17.9463C20.0938 17.5739 19.9792 17.2445 19.793 16.958L18.8477 15.3682C18.9479 15.182 19.0374 14.9922 19.1162 14.7988C19.195 14.6055 19.2702 14.4014 19.3418 14.1865L21.125 13.7568C21.4544 13.6709 21.7659 13.5133 22.0596 13.2842C22.3532 13.055 22.5 12.7542 22.5 12.3818V11.0068C22.5 10.6201 22.3532 10.2943 22.0596 10.0293ZM21.1465 11.0498L21.125 12.2744C21.0964 12.3031 21.057 12.3281 21.0068 12.3496C20.9567 12.3711 20.8958 12.389 20.8242 12.4033L18.2676 13.0479L18.0312 13.7568C17.974 13.9287 17.9131 14.097 17.8486 14.2617C17.7842 14.4264 17.709 14.5876 17.623 14.7451L17.2793 15.4326L18.6328 17.667C18.6758 17.7386 18.708 17.8031 18.7295 17.8604C18.751 17.9176 18.7617 17.9678 18.7617 18.0107L17.8594 18.9131C17.8164 18.8988 17.7734 18.8809 17.7305 18.8594L17.623 18.8057L15.3672 17.3662L14.6582 17.7314C14.4863 17.8174 14.3145 17.8962 14.1426 17.9678C13.9707 18.0394 13.7988 18.1038 13.627 18.1611L12.875 18.4189L12.3164 20.9756C12.3021 21.0329 12.277 21.0902 12.2412 21.1475C12.2054 21.2048 12.1803 21.2406 12.166 21.2549H10.9199C10.8913 21.2262 10.8662 21.1868 10.8447 21.1367C10.8232 21.0866 10.8053 21.0257 10.791 20.9541L10.1465 18.4189L9.41602 18.1826C9.22982 18.1253 9.04362 18.0573 8.85742 17.9785C8.67122 17.8997 8.48503 17.8102 8.29883 17.71L7.58984 17.3447L5.33398 18.7842C5.29102 18.8128 5.24447 18.8379 5.19434 18.8594C5.14421 18.8809 5.09766 18.8916 5.05469 18.8916L4.15234 18.0107C4.15234 17.9678 4.16309 17.9176 4.18457 17.8604C4.20605 17.8031 4.23828 17.7458 4.28125 17.6885L5.67773 15.3467L5.35547 14.6807C5.26953 14.5231 5.19434 14.3691 5.12988 14.2188C5.06543 14.0684 5.01172 13.9215 4.96875 13.7783L4.73242 13.0479L2.21875 12.4033C2.13281 12.389 2.0612 12.3711 2.00391 12.3496C1.94661 12.3281 1.90365 12.3031 1.875 12.2744V11.0068C1.88932 11.0068 1.92155 10.9925 1.97168 10.9639C2.02181 10.9352 2.06836 10.9137 2.11133 10.8994L4.71094 10.3193L4.94727 9.56738C4.99023 9.40983 5.04394 9.25228 5.1084 9.09473C5.17285 8.93717 5.24805 8.7653 5.33398 8.5791L5.67773 7.91309L4.28125 5.59277C4.23828 5.52116 4.20605 5.45671 4.18457 5.39941C4.16309 5.34212 4.15234 5.29199 4.15234 5.24902L5.05469 4.34668C5.09766 4.361 5.14062 4.37891 5.18359 4.40039L5.29102 4.4541L7.58984 5.91504L8.29883 5.5498C8.48503 5.44954 8.67122 5.36003 8.85742 5.28125C9.04362 5.20247 9.22982 5.13444 9.41602 5.07715L10.1465 4.84082L10.7695 2.34863C10.7839 2.26269 10.8053 2.19108 10.834 2.13379C10.8626 2.0765 10.8913 2.03353 10.9199 2.00488H12.1875L12.2305 2.08008C12.2591 2.13021 12.2806 2.18392 12.2949 2.24121L12.8535 4.84082L13.6055 5.09863C13.7917 5.1416 13.9707 5.20247 14.1426 5.28125C14.3145 5.36003 14.4863 5.44238 14.6582 5.52832L15.3672 5.89355L17.5801 4.47559C17.623 4.44694 17.6696 4.42546 17.7197 4.41113C17.7699 4.39681 17.8164 4.38965 17.8594 4.38965L18.7617 5.27051C18.7617 5.29915 18.751 5.34212 18.7295 5.39941C18.708 5.45671 18.6758 5.514 18.6328 5.57129L17.2793 7.82715L17.623 8.51465C17.7233 8.70085 17.8092 8.87988 17.8809 9.05176C17.9525 9.22363 18.0098 9.39551 18.0527 9.56738L18.2891 10.3193L20.8457 10.8994C20.9173 10.9137 20.9818 10.9388 21.0391 10.9746C21.0964 11.0104 21.1322 11.0355 21.1465 11.0498ZM11.5 7.50488C12.6458 7.50488 13.6234 7.90592 14.4326 8.70801C15.2419 9.5101 15.6465 10.484 15.6465 11.6299C15.6465 12.7757 15.2419 13.7497 14.4326 14.5518C13.6234 15.3538 12.6458 15.7549 11.5 15.7549C10.3685 15.7549 9.39812 15.3538 8.58887 14.5518C7.77962 13.7497 7.375 12.7757 7.375 11.6299C7.375 10.484 7.77962 9.5101 8.58887 8.70801C9.39812 7.90592 10.3685 7.50488 11.5 7.50488ZM13.4443 13.5742C12.9072 14.1113 12.2591 14.3799 11.5 14.3799C10.7409 14.3799 10.0928 14.1113 9.55566 13.5742C9.01855 13.0371 8.75 12.389 8.75 11.6299C8.75 10.8708 9.01855 10.2227 9.55566 9.68555C10.0928 9.14843 10.7409 8.87988 11.5 8.87988C12.2591 8.87988 12.9072 9.14843 13.4443 9.68555C13.9814 10.2227 14.25 10.8708 14.25 11.6299C14.25 12.389 13.9814 13.0371 13.4443 13.5742Z" fill="#F47B54"/>
</svg>
